<svg width="540" height="440" viewBox="0 0 540 440" fill="none" xmlns="http://www.w3.org/2000/svg">
<mask id="mask0" mask-type="alpha" maskUnits="userSpaceOnUse" x="0" y="0" width="540" height="440">
<rect width="540" height="440" fill="white"/>
</mask>
<g mask="url(#mask0)">
<rect opacity="0.02" width="540" height="440" fill="#3C64B1"/>
<g opacity="0.06">
<path d="M0 0L540 440" stroke="#3C64B1"/>
<path d="M21.0938 -17.1875L561.094 422.812" stroke="#3C64B1"/>
<path d="M42.1875 -34.375L582.188 405.625" stroke="#3C64B1"/>
<path d="M63.2812 -51.5625L603.281 388.438" stroke="#3C64B1"/>
<path d="M84.375 -68.75L624.375 371.25" stroke="#3C64B1"/>
<path d="M105.469 -85.9375L645.469 354.062" stroke="#3C64B1"/>
<path d="M126.562 -103.125L666.562 336.875" stroke="#3C64B1"/>
<path d="M147.656 -120.312L687.656 319.688" stroke="#3C64B1"/>
<path d="M168.75 -137.5L708.75 302.5" stroke="#3C64B1"/>
<path d="M189.844 -154.688L729.844 285.312" stroke="#3C64B1"/>
<path d="M210.938 -171.875L750.938 268.125" stroke="#3C64B1"/>
<path d="M232.031 -189.062L772.031 250.938" stroke="#3C64B1"/>
<path d="M253.125 -206.25L793.125 233.75" stroke="#3C64B1"/>
<path d="M-21.0938 17.1875L518.906 457.188" stroke="#3C64B1"/>
<path d="M-42.1875 34.375L497.812 474.375" stroke="#3C64B1"/>
<path d="M-63.2812 51.5625L476.719 491.562" stroke="#3C64B1"/>
<path d="M-84.375 68.75L455.625 508.75" stroke="#3C64B1"/>
<path d="M-105.469 85.9375L434.531 525.938" stroke="#3C64B1"/>
<path d="M-126.562 103.125L413.438 543.125" stroke="#3C64B1"/>
<path d="M-147.656 120.312L392.344 560.312" stroke="#3C64B1"/>
<path d="M-168.75 137.5L371.25 577.5" stroke="#3C64B1"/>
<path d="M-189.844 154.688L350.156 594.688" stroke="#3C64B1"/>
<path d="M-210.938 171.875L329.062 611.875" stroke="#3C64B1"/>
<path d="M-232.031 189.062L307.969 629.062" stroke="#3C64B1"/>
<path d="M-253.125 206.25L286.875 646.25" stroke="#3C64B1"/>
<path d="M-274.219 223.438L265.781 663.438" stroke="#3C64B1"/>
</g>
<g opacity="0.06">
<path d="M10.5469 -8.59375L550.547 431.406" stroke="#3C64B1"/>
<path d="M31.6406 -25.7812L571.641 414.219" stroke="#3C64B1"/>
<path d="M52.7344 -42.9688L592.734 397.031" stroke="#3C64B1"/>
<path d="M73.8281 -60.1562L613.828 379.844" stroke="#3C64B1"/>
<path d="M94.9219 -77.3438L634.922 362.656" stroke="#3C64B1"/>
<path d="M116.016 -94.5312L656.016 345.469" stroke="#3C64B1"/>
<path d="M137.109 -111.719L677.109 328.281" stroke="#3C64B1"/>
<path d="M158.203 -128.906L698.203 311.094" stroke="#3C64B1"/>
<path d="M179.297 -146.094L719.297 293.906" stroke="#3C64B1"/>
<path d="M200.391 -163.281L740.391 276.719" stroke="#3C64B1"/>
<path d="M221.484 -180.469L761.484 259.531" stroke="#3C64B1"/>
<path d="M242.578 -197.656L782.578 242.344" stroke="#3C64B1"/>
<path d="M263.672 -214.844L803.672 225.156" stroke="#3C64B1"/>
<path d="M-10.5469 8.59375L529.453 448.594" stroke="#3C64B1"/>
<path d="M-31.6406 25.7812L508.359 465.781" stroke="#3C64B1"/>
<path d="M-52.7344 42.9688L487.266 482.969" stroke="#3C64B1"/>
<path d="M-73.8281 60.1562L466.172 500.156" stroke="#3C64B1"/>
<path d="M-94.9219 77.3438L445.078 517.344" stroke="#3C64B1"/>
<path d="M-116.016 94.5312L423.984 534.531" stroke="#3C64B1"/>
<path d="M-137.109 111.719L402.891 551.719" stroke="#3C64B1"/>
<path d="M-158.203 128.906L381.797 568.906" stroke="#3C64B1"/>
<path d="M-179.297 146.094L360.703 586.094" stroke="#3C64B1"/>
<path d="M-200.391 163.281L339.609 603.281" stroke="#3C64B1"/>
<path d="M-221.484 180.469L318.516 620.469" stroke="#3C64B1"/>
<path d="M-242.578 197.656L297.422 637.656" stroke="#3C64B1"/>
<path d="M-263.672 214.844L276.328 654.844" stroke="#3C64B1"/>
</g>
</g>
<g opacity="0.5">
<path d="M281.667 205H258.333C256.492 205 255 206.492 255 208.333V231.667C255 233.508 256.492 235 258.333 235H281.667C283.508 235 285 233.508 285 231.667V208.333C285 206.492 283.508 205 281.667 205Z" stroke="#3C64B1" stroke-width="1.5" stroke-linecap="round" stroke-linejoin="round"/>
<path d="M264.167 216.667C265.547 216.667 266.667 215.547 266.667 214.167C266.667 212.786 265.547 211.667 264.167 211.667C262.786 211.667 261.667 212.786 261.667 214.167C261.667 215.547 262.786 216.667 264.167 216.667Z" stroke="#3C64B1" stroke-width="1.5" stroke-linecap="round" stroke-linejoin="round"/>
<path d="M285 225L276.667 216.667L258.333 235" stroke="#3C64B1" stroke-width="1.5" stroke-linecap="round" stroke-linejoin="round"/>
</g>
</svg>
