<svg width="635" height="512" viewBox="0 0 635 512" fill="none" xmlns="http://www.w3.org/2000/svg">
<mask id="mask0" mask-type="alpha" maskUnits="userSpaceOnUse" x="0" y="0" width="635" height="512">
<rect width="635" height="512" fill="white"/>
</mask>
<g mask="url(#mask0)">
<rect opacity="0.02" width="635" height="512" fill="#3C64B1"/>
<g opacity="0.06">
<path d="M0 0L635 512" stroke="#3C64B1"/>
<path d="M24.8047 -20L659.805 492" stroke="#3C64B1"/>
<path d="M49.6094 -40L684.609 472" stroke="#3C64B1"/>
<path d="M74.4141 -60L709.414 452" stroke="#3C64B1"/>
<path d="M99.2188 -80L734.219 432" stroke="#3C64B1"/>
<path d="M124.023 -100L759.023 412" stroke="#3C64B1"/>
<path d="M148.828 -120L783.828 392" stroke="#3C64B1"/>
<path d="M173.633 -140L808.633 372" stroke="#3C64B1"/>
<path d="M198.438 -160L833.438 352" stroke="#3C64B1"/>
<path d="M223.242 -180L858.242 332" stroke="#3C64B1"/>
<path d="M248.047 -200L883.047 312" stroke="#3C64B1"/>
<path d="M272.852 -220L907.852 292" stroke="#3C64B1"/>
<path d="M297.656 -240L932.656 272" stroke="#3C64B1"/>
<path d="M-24.8047 20L610.195 532" stroke="#3C64B1"/>
<path d="M-49.6094 40L585.391 552" stroke="#3C64B1"/>
<path d="M-74.4141 60L560.586 572" stroke="#3C64B1"/>
<path d="M-99.2188 80L535.781 592" stroke="#3C64B1"/>
<path d="M-124.023 100L510.977 612" stroke="#3C64B1"/>
<path d="M-148.828 120L486.172 632" stroke="#3C64B1"/>
<path d="M-173.633 140L461.367 652" stroke="#3C64B1"/>
<path d="M-198.438 160L436.562 672" stroke="#3C64B1"/>
<path d="M-223.242 180L411.758 692" stroke="#3C64B1"/>
<path d="M-248.047 200L386.953 712" stroke="#3C64B1"/>
<path d="M-272.852 220L362.148 732" stroke="#3C64B1"/>
<path d="M-297.656 240L337.344 752" stroke="#3C64B1"/>
<path d="M-322.461 260L312.539 772" stroke="#3C64B1"/>
</g>
<g opacity="0.06">
<path d="M12.4023 -10L647.402 502" stroke="#3C64B1"/>
<path d="M37.207 -30L672.207 482" stroke="#3C64B1"/>
<path d="M62.0117 -50L697.012 462" stroke="#3C64B1"/>
<path d="M86.8164 -70L721.816 442" stroke="#3C64B1"/>
<path d="M111.621 -90L746.621 422" stroke="#3C64B1"/>
<path d="M136.426 -110L771.426 402" stroke="#3C64B1"/>
<path d="M161.23 -130L796.23 382" stroke="#3C64B1"/>
<path d="M186.035 -150L821.035 362" stroke="#3C64B1"/>
<path d="M210.84 -170L845.84 342" stroke="#3C64B1"/>
<path d="M235.645 -190L870.645 322" stroke="#3C64B1"/>
<path d="M260.449 -210L895.449 302" stroke="#3C64B1"/>
<path d="M285.254 -230L920.254 282" stroke="#3C64B1"/>
<path d="M310.059 -250L945.059 262" stroke="#3C64B1"/>
<path d="M-12.4023 10L622.598 522" stroke="#3C64B1"/>
<path d="M-37.207 30L597.793 542" stroke="#3C64B1"/>
<path d="M-62.0117 50L572.988 562" stroke="#3C64B1"/>
<path d="M-86.8164 70L548.184 582" stroke="#3C64B1"/>
<path d="M-111.621 90L523.379 602" stroke="#3C64B1"/>
<path d="M-136.426 110L498.574 622" stroke="#3C64B1"/>
<path d="M-161.23 130L473.77 642" stroke="#3C64B1"/>
<path d="M-186.035 150L448.965 662" stroke="#3C64B1"/>
<path d="M-210.84 170L424.16 682" stroke="#3C64B1"/>
<path d="M-235.645 190L399.355 702" stroke="#3C64B1"/>
<path d="M-260.449 210L374.551 722" stroke="#3C64B1"/>
<path d="M-285.254 230L349.746 742" stroke="#3C64B1"/>
<path d="M-310.059 250L324.941 762" stroke="#3C64B1"/>
</g>
</g>
<g opacity="0.5">
<path d="M318 272.667C327.205 272.667 334.667 265.205 334.667 256C334.667 246.795 327.205 239.333 318 239.333C308.795 239.333 301.333 246.795 301.333 256C301.333 265.205 308.795 272.667 318 272.667Z" stroke="#3C64B1" stroke-width="1.5" stroke-linecap="round" stroke-linejoin="round"/>
<path d="M314.667 249.333L324.667 256L314.667 262.667V249.333Z" stroke="#3C64B1" stroke-width="1.5" stroke-linecap="round" stroke-linejoin="round"/>
</g>
</svg>
